PathFileType  4	(X/Y/Z)
DataRate	CameraRate	NumFrames	NumMarkers	Units	OrigDataRate	OrigDataStartFrame	OrigNumFrames
	100.0 	100.0	9	50	mm	100.0	133	265
Frame#	Time	R.Shoulder			R.Clavicle			R.Bicep			R.Elbow			R.Forearm			R.Wrist			L.Shoulder			L.Clavicle			L.Scapula			L.Bicep			L.Elbow			L.Forearm			L.Wrist			R.ASIS			R.Iliac			S2			L.Iliac			L.ASIS			R.TH1			R.TH2			R.TH3			R.Knee			R.SH1			R.SH2			R.SH3			R.SH4			R.Ankle			R.Heel			R.MT5			L.TH1			L.TH2			L.TH3			L.TH4			L.Knee			L.SH1			L.SH2			L.SH3			L.Ankle			L.Heel			L.MT5			R.MKnee			L.MKnee			R.MAnkle			L.MAnkle			R.MElbow			L.MElbow			R.PSIS			L.PSIS			R_HJC			L_HJC			
		X1	Y1	Z1	X2	Y2	Z2	X3	Y3	Z3	X4	Y4	Z4	X5	Y5	Z5	X6	Y6	Z6	X7	Y7	Z7	X8	Y8	Z8	X9	Y9	Z9	X10	Y10	Z10	X11	Y11	Z11	X12	Y12	Z12	X13	Y13	Z13	X14	Y14	Z14	X15	Y15	Z15	X16	Y16	Z16	X17	Y17	Z17	X18	Y18	Z18	X19	Y19	Z19	X20	Y20	Z20	X21	Y21	Z21	X22	Y22	Z22	X23	Y23	Z23	X24	Y24	Z24	X25	Y25	Z25	X26	Y26	Z26	X27	Y27	Z27	X28	Y28	Z28	X29	Y29	Z29	X30	Y30	Z30	X31	Y31	Z31	X32	Y32	Z32	X33	Y33	Z33	X34	Y34	Z34	X35	Y35	Z35	X36	Y36	Z36	X37	Y37	Z37	X38	Y38	Z38	X39	Y39	Z39	X40	Y40	Z40	X41	Y41	Z41	X42	Y42	Z42	X43	Y43	Z43	X44	Y44	Z44	X45	Y45	Z45	X46	Y46	Z46	X47	Y47	Z47	X48	Y48	Z48	X49	Y49	Z49	X50	Y50	Z50	

133	1.32000	266.331	7.153	1423.462	328.282	167.914	1412.122	289.460	-6.308	1247.699	214.990	-50.776	1111.914	311.915	-43.664	994.778	316.774	-82.355	890.964	211.966	393.588	1428.334	331.621	233.205	1414.127	123.642	251.612	1313.269	255.235	399.767	1258.847	177.471	427.040	1120.491	259.816	441.543	1007.603	249.481	466.175	888.558	356.057	50.404	959.503	260.802	34.525	1045.395	173.870	201.802	990.966	277.943	358.716	1038.012	370.556	328.019	952.106	368.119	72.713	718.356	353.905	82.441	633.149	241.664	-12.175	641.131	222.976	19.640	496.618	276.913	49.444	360.144	268.908	51.985	287.176	176.118	-5.798	366.805	167.433	-1.311	292.943	209.222	34.288	99.944	144.631	95.121	54.190	333.153	4.798	35.794	369.498	349.030	746.153	364.002	338.152	662.214	225.978	397.688	750.087	223.021	384.913	662.832	233.051	360.012	501.526	263.684	353.899	377.960	263.304	354.603	302.354	149.134	363.838	301.047	211.555	350.008	95.020	149.521	283.934	42.412	324.144	386.794	35.269	217.049	168.862	500.516	236.167	211.367	502.018	247.095	129.284	116.396	242.488	256.529	109.826	230.525	55.929	1092.450	235.247	327.331	1099.008	174.429	149.964	1006.232	181.636	250.928	1003.388	274.110	89.379	871.633	282.439	298.965	866.769
134	1.33000	266.331	7.153	1423.462	328.282	167.914	1412.122	289.576	-6.279	1247.531	215.130	-50.929	1111.959	311.980	-43.792	994.941	317.022	-82.387	891.213	211.819	393.581	1428.368	331.621	233.205	1414.127	123.867	251.495	1313.152	255.009	399.520	1258.817	177.418	427.040	1120.408	259.816	441.543	1007.603	249.481	466.175	888.558	356.057	50.404	959.503	260.802	34.525	1045.395	173.668	201.693	991.048	278.002	358.692	1037.787	370.556	328.019	952.106	368.119	72.713	718.356	354.185	82.474	633.172	241.664	-12.175	641.131	222.976	19.640	496.618	277.219	49.470	360.478	268.908	51.985	287.176	175.968	-5.891	366.762	167.433	-1.311	292.943	209.222	34.288	99.944	144.697	95.249	54.051	333.153	4.798	35.794	369.886	349.234	746.416	364.002	338.152	662.214	226.222	397.807	750.056	223.068	384.954	662.758	232.698	359.977	501.780	263.768	353.974	378.052	263.304	354.603	302.354	149.041	363.793	301.032	211.479	350.242	94.952	149.447	283.929	42.290	324.144	386.794	35.269	217.049	168.862	500.516	236.275	211.444	502.140	247.095	129.284	116.396	242.488	256.529	109.826	230.410	55.684	1092.350	235.247	327.331	1099.008	174.429	149.964	1006.232	181.520	250.937	1003.311	274.058	89.312	871.640	282.374	298.897	866.693
135	1.34000	266.783	7.318	1423.569	328.293	168.013	1412.010	289.576	-6.279	1247.531	215.271	-51.028	1112.047	311.980	-43.792	994.941	317.022	-82.387	891.213	211.966	393.588	1428.334	331.621	233.205	1414.127	123.874	251.458	1313.249	255.235	399.767	1258.847	177.471	427.040	1120.491	259.816	441.543	1007.603	249.563	466.311	888.545	356.057	50.404	959.503	260.802	34.525	1045.395	173.870	201.802	990.966	278.002	358.692	1037.787	370.556	328.019	952.106	368.272	72.646	718.438	354.452	82.563	633.144	241.752	-12.267	641.179	222.976	19.640	496.618	277.100	49.471	360.531	268.908	51.985	287.176	176.032	-5.612	366.723	167.350	-1.208	292.942	209.222	34.288	99.944	144.697	95.249	54.051	333.153	4.798	35.794	369.560	349.144	746.351	364.002	338.152	662.214	225.932	397.634	750.096	223.021	384.913	662.832	233.051	360.012	501.526	263.684	354.000	378.075	263.184	354.684	302.485	148.924	363.851	301.137	211.497	350.042	94.906	149.447	283.929	42.290	324.144	386.794	35.269	217.049	168.862	500.516	236.394	211.347	501.996	247.140	129.219	116.308	242.488	256.529	109.826	230.753	55.308	1092.186	235.106	327.341	1098.906	174.472	149.992	1006.362	181.731	250.720	1003.249	274.123	89.290	871.647	282.446	298.874	866.684
136	1.35000	266.896	7.341	1423.597	328.422	167.860	1411.953	289.936	-6.241	1247.621	215.227	-51.155	1112.094	311.980	-43.792	994.941	317.252	-82.639	891.249	211.819	393.581	1428.368	331.621	233.205	1414.127	124.022	251.542	1313.190	255.280	399.734	1258.691	177.524	427.022	1120.378	259.973	441.675	1007.698	249.563	466.311	888.545	356.057	50.404	959.503	260.802	34.525	1045.395	173.870	201.802	990.966	278.002	358.692	1037.787	370.556	328.019	952.106	368.035	72.578	718.391	353.983	82.352	633.094	241.752	-12.267	641.179	222.976	19.640	496.618	277.219	49.470	360.478	268.908	51.985	287.176	176.045	-5.520	366.752	167.433	-1.311	292.943	209.222	34.288	99.944	144.709	95.019	54.397	333.153	4.798	35.794	369.560	349.144	746.351	364.009	338.134	662.089	226.371	397.933	750.045	222.945	385.079	662.819	232.842	360.048	501.427	263.830	353.871	378.026	263.304	354.603	302.354	149.017	363.856	301.048	211.567	350.039	94.976	149.447	283.929	42.290	324.144	386.794	35.269	217.049	168.862	500.516	236.275	211.444	502.140	247.095	129.284	116.396	242.488	256.529	109.826	230.960	55.236	1092.085	235.106	327.341	1098.906	174.472	149.992	1006.362	181.731	250.720	1003.249	274.123	89.290	871.647	282.446	298.874	866.684
137	1.36000	267.041	7.387	1423.637	328.492	167.792	1411.898	289.936	-6.241	1247.621	215.271	-51.028	1112.047	312.320	-43.923	994.859	316.844	-83.455	891.471	211.884	393.374	1428.276	331.691	233.305	1413.918	124.022	251.542	1313.190	255.235	399.767	1258.847	177.524	427.022	1120.378	259.973	441.675	1007.698	249.563	466.311	888.545	356.057	50.404	959.503	260.802	34.525	1045.395	173.870	201.802	990.966	277.998	358.942	1037.895	370.822	327.977	952.236	368.188	72.511	718.473	353.976	82.514	633.077	241.716	-12.048	641.138	222.976	19.640	496.618	277.219	49.470	360.478	268.908	51.985	287.176	176.046	-5.321	366.760	167.350	-1.208	292.942	209.222	34.288	99.944	144.697	95.249	54.051	333.153	4.798	35.794	369.863	349.381	746.387	364.009	338.134	662.089	226.272	397.850	749.977	223.032	385.092	662.653	232.842	360.048	501.427	263.684	354.000	378.075	263.304	354.603	302.354	149.017	363.856	301.048	211.443	350.067	94.999	149.447	283.929	42.290	324.144	386.794	35.269	217.049	168.862	500.516	236.275	211.444	502.140	247.095	129.284	116.396	242.116	256.483	109.949	230.960	55.236	1092.085	235.106	327.341	1098.906	174.472	149.992	1006.362	181.731	250.720	1003.249	274.207	89.345	871.667	282.586	298.928	866.756
138	1.37000	267.307	7.412	1423.581	328.513	168.039	1411.801	289.936	-6.241	1247.621	215.227	-51.155	1112.094	312.559	-44.008	994.904	317.364	-82.778	891.144	211.878	393.293	1428.151	331.855	233.176	1414.015	124.319	251.462	1313.196	255.280	399.734	1258.691	177.524	427.022	1120.378	260.157	441.631	1007.739	249.728	466.455	888.535	356.057	50.404	959.503	260.802	34.525	1045.395	174.151	201.694	990.918	277.998	358.942	1037.895	370.822	327.977	952.236	368.269	72.683	718.329	354.072	82.650	633.094	241.600	-12.109	641.071	222.976	19.640	496.618	277.080	49.308	360.286	268.980	52.174	287.211	176.141	-5.517	366.815	167.479	-1.175	292.961	209.222	34.288	99.944	144.573	95.142	54.140	333.153	4.798	35.794	369.560	349.144	746.351	364.009	338.134	662.089	226.321	397.890	750.124	222.942	385.001	662.712	233.008	359.943	501.523	263.641	353.865	377.906	263.200	354.659	302.344	148.831	363.879	301.152	211.443	350.067	94.999	149.447	283.929	42.290	324.144	386.794	35.269	217.049	168.862	500.516	236.275	211.444	502.140	247.095	129.284	116.396	242.488	256.529	109.826	230.918	55.011	1092.014	235.142	327.319	1098.618	174.794	149.860	1006.294	181.731	250.720	1003.249	274.346	89.315	871.654	282.674	298.900	866.745
139	1.38000	267.307	7.412	1423.581	328.582	167.972	1411.746	289.922	-6.452	1247.658	215.331	-51.343	1111.953	312.543	-44.278	994.760	317.459	-82.928	891.214	211.878	393.293	1428.151	332.139	233.250	1413.902	124.162	251.147	1313.351	255.280	399.734	1258.691	177.524	427.022	1120.378	260.157	441.631	1007.739	249.859	466.567	888.590	356.057	50.404	959.503	261.190	34.371	1045.244	173.870	201.802	990.966	278.167	358.998	1037.795	370.556	328.019	952.106	368.116	72.749	718.247	354.072	82.650	633.094	241.531	-12.049	640.997	222.976	19.640	496.618	277.080	49.308	360.286	269.321	52.297	287.136	176.278	-5.415	366.693	167.433	-1.311	292.943	209.222	34.288	99.944	144.573	95.142	54.140	333.035	4.714	35.725	369.537	349.292	746.321	364.105	338.256	662.028	226.187	397.835	749.982	222.861	385.172	662.795	232.737	360.036	501.529	263.641	353.865	377.906	263.198	354.635	302.211	148.905	363.822	301.023	211.543	350.055	94.754	149.447	283.929	42.290	324.144	386.794	35.269	217.049	168.862	500.516	236.275	211.444	502.140	247.095	129.284	116.396	242.488	256.529	109.826	230.918	55.011	1092.014	235.203	327.356	1098.488	174.794	149.860	1006.294	181.731	250.720	1003.249	274.244	89.329	871.586	282.467	298.918	866.665
140	1.39000	267.508	7.373	1423.582	328.672	167.986	1411.697	290.080	-6.595	1247.748	215.327	-51.444	1112.003	312.543	-44.278	994.760	317.532	-83.550	891.299	211.878	393.293	1428.151	332.277	233.282	1413.820	124.239	251.143	1313.438	255.280	399.734	1258.691	177.524	427.022	1120.378	260.151	441.748	1007.667	250.036	466.580	888.538	356.057	50.404	959.503	261.190	34.371	1045.244	174.260	201.529	990.941	278.206	358.867	1037.767	370.822	327.977	952.236	368.116	72.749	718.247	354.072	82.650	633.094	241.433	-12.050	640.936	222.976	19.640	496.618	277.080	49.308	360.286	269.204	52.602	287.055	176.278	-5.415	366.693	167.446	-1.414	292.885	209.222	34.288	99.944	144.631	95.121	54.190	332.795	4.613	35.698	369.292	349.147	746.124	364.009	338.134	662.089	226.336	397.964	749.963	222.909	385.217	662.715	233.114	359.955	501.421	263.599	353.925	377.982	263.176	354.588	302.247	148.942	363.957	300.993	211.565	350.149	94.845	149.447	283.929	42.290	324.144	386.794	35.269	217.049	168.862	500.516	236.275	211.444	502.140	246.996	129.209	116.320	242.488	256.529	109.826	230.918	55.011	1092.014	235.540	327.514	1098.329	174.794	149.860	1006.294	181.731	250.720	1003.249	274.398	89.278	871.594	282.667	298.866	866.705
141	1.40000	267.508	7.373	1423.582	328.683	167.869	1411.619	290.394	-6.603	1247.703	215.477	-51.622	1112.027	312.624	-44.343	994.835	317.532	-83.550	891.299	211.990	393.317	1428.093	332.277	233.282	1413.820	124.481	251.446	1313.365	255.280	399.734	1258.691	177.610	427.052	1120.428	260.261	441.638	1007.617	250.036	466.580	888.538	356.057	50.404	959.503	261.190	34.371	1045.244	174.151	201.694	990.918	278.206	358.867	1037.767	370.822	327.977	952.236	368.116	72.749	718.247	354.219	82.643	633.085	241.636	-12.328	641.112	222.976	19.640	496.618	277.020	49.650	360.128	269.196	52.462	286.957	176.418	-5.566	366.700	167.350	-1.208	292.942	209.330	34.371	99.886	144.631	95.121	54.190	332.795	4.613	35.698	369.475	349.178	746.123	364.105	338.256	662.028	226.498	397.950	750.051	223.207	385.108	662.676	233.114	359.955	501.421	263.726	353.840	377.884	263.198	354.635	302.211	149.114	363.856	300.999	211.369	350.262	94.978	149.628	284.039	42.412	324.144	386.794	35.269	217.049	168.862	500.516	236.275	211.444	502.140	246.996	129.209	116.320	242.488	256.529	109.826	231.032	54.863	1092.048	235.203	327.356	1098.488	174.969	149.933	1006.269	181.731	250.720	1003.249	274.403	89.314	871.585	282.689	298.901	866.701
